HIERARCHY
ROOT Spine
{
    OFFSET 0.0 0.0 -0.0
    CHANNELS 6 Xposition Yposition Zposition Zrotation Xrotation Yrotation
    JOINT ShoulderCenter
    {
        OFFSET 0.0 31.7155818939209 0.0
        CHANNELS 3 Zrotation Xrotation Yrotation
        JOINT LeftShoulder
        {
            OFFSET 12.371820449829102 0.0 0.0
            CHANNELS 3 Zrotation Xrotation Yrotation
            JOINT LeftElbow
            {
                OFFSET 28.576499938964844 0.0 0.0
                CHANNELS 3 Zrotation Xrotation Yrotation
                JOINT LeftHand
                {
                    OFFSET 31.149410247802734 0.0 0.0
                    CHANNELS 3 Zrotation Xrotation Yrotation
                    End Site
                    {
                        OFFSET 12.45976448059082 0.0 0.0
                    }
                }
            }
        }
        JOINT RightShoulder
        {
            OFFSET -12.371820449829102 0.0 0.0
            CHANNELS 3 Zrotation Xrotation Yrotation
            JOINT RightElbow
            {
                OFFSET -28.576499938964844 0.0 0.0
                CHANNELS 3 Zrotation Xrotation Yrotation
                JOINT RightHand
                {
                    OFFSET -31.149410247802734 0.0 0.0
                    CHANNELS 3 Zrotation Xrotation Yrotation
                    End Site
                    {
                        OFFSET -12.45976448059082 0.0 0.0
                    }
                }
            }
        }
        End Site
        {
            OFFSET 0.0 12.686232566833496 0.0
        }
    }
    JOINT LeftHip
    {
        OFFSET 15.476964753996805 -15.476964753996805 0.0
        CHANNELS 3 Zrotation Xrotation Yrotation
        JOINT LeftKnee
        {
            OFFSET 0.0 -34.824562072753906 0.0
            CHANNELS 3 Zrotation Xrotation Yrotation
            JOINT LeftFoot
            {
                OFFSET 0.0 -39.86363220214844 0.0
                CHANNELS 3 Zrotation Xrotation Yrotation
                End Site
                {
                    OFFSET 0.0 0.0 15.945453643798828
                }
            }
        }
    }
    JOINT RightHip
    {
        OFFSET -15.476964753996805 -15.476964753996805 0.0
        CHANNELS 3 Zrotation Xrotation Yrotation
        JOINT RightKnee
        {
            OFFSET 0.0 -34.824562072753906 0.0
            CHANNELS 3 Zrotation Xrotation Yrotation
            JOINT RightFoot
            {
                OFFSET 0.0 -39.86363220214844 0.0
                CHANNELS 3 Zrotation Xrotation Yrotation
                End Site
                {
                    OFFSET 0.0 0.0 15.945453643798828
                }
            }
        }
    }
}
MOTION
Frames: 7
Frame Time: 0.03333333333333333
89.4000015258789 18.19999885559082 5.099999904632568 27.94443146786024 -2.5381733261719814 -97.59025321209626 -3.0647794101682427e-06 2.4066825538734908e-06 -0.6443700639210441 97.40419340161603 0.3337409459679657 -175.88764967762114 1.2653369563664286e-06 2.4756386400041924e-07 38.05955323540385 6.361109362927035e-15 -3.531125038440127e-31 -6.361109362927035e-15 -104.04321767780786 1.4709674365571734 176.6126202721511 6.825701258968847e-06 2.2912291784012653e-06 -40.78071043521372 3.1805546814635164e-15 -1.7655625192200634e-31 -6.361109362927033e-15 -8.062698073978863 -28.286540281619313 -26.46964146734935 4.074184231502758 3.1368856998628036 -5.815799802750533 3.975693351829395e-16 5.517382872562698e-33 1.590277340731758e-15 165.73631167933655 -82.98087343404298 106.27809289473748 -82.77942845515028 31.701474782418547 128.76272482797128 0.0 0.0 4.47265502080807e-15
87.5 18.399999618530273 5.0 26.889216960473078 -2.173473211877095 -97.23933179694254 -7.81631808071991e-07 7.662632897158863e-07 -1.1821039773573976 97.99621530519407 1.4275965542143862 -175.3328421340425 -7.868907733014085e-07 -4.647878518667001e-08 36.759499847197084 0.0 0.0 0.0 -103.23503581245552 1.4505910179248087 178.0003279778567 -6.668603908591306e-08 -3.2798366447719658e-06 -40.56324109360504 3.531125038440127e-31 -6.3611093629270335e-15 6.3611093629270335e-15 -7.248903390667948 -24.313085598389055 -32.560438329445276 4.118901723845338 1.632688014858987 -2.925659797970383 -9.93923337957349e-17 -3.0173187584327256e-34 3.4787316828507215e-16 141.5524424751717 -85.87488059902145 83.80886199114522 -71.4745016893365 33.85997510550395 114.15409377707574 1.5902773407317584e-15 -7.724336021587778e-32 -5.565970692561154e-15
85.5 18.600000381469727 4.5 25.99939100648764 -1.0840252237261905 -96.94607582382615 1.5944832488009276e-06 -5.480232078322858e-07 -1.1844452889837054 99.02614999115572 2.0118406132698348 -175.24250181288298 -8.227302379771553e-07 4.244924260771241e-06 36.527560517670395 6.361109362927033e-15 0.0 0.0 -101.91896829941533 2.001563541896657 179.13709504414658 2.344937163831862e-06 -1.6885148177021404e-06 -39.08541360073315 0.0 0.0 -6.361109362927032e-15 -5.884708104176555 -20.59397607910423 -35.9479906679616 5.1803647893152 -0.23235621485500155 0.41218601122995185 5.963540027744096e-16 -3.975693351829397e-16 -1.5033090486604907e-15 76.48144852265571 -86.27087147160793 19.806222026200256 -66.73534299358654 35.22423458874048 109.30712101815634 1.2414111463266072e-32 -7.951386703658792e-16 1.7890620083232284e-15
83.60000610351562 19.30000114440918 4.0 25.999390034668707 -0.3613810862442625 -97.09165241306177 9.342845777279805e-07 -1.3081641690637108e-06 -0.8115649443120158 99.05531354134442 3.9442831362840183 -174.13379776713137 -3.62115667581514e-06 1.0397290969037675e-06 35.40166058326004 0.0 0.0 0.0 -101.2705136299125 2.440102533705944 179.54595491379092 4.5205263875140003e-07 3.393489601238378e-06 -37.22129476630524 0.0 0.0 6.3611093629270335e-15 -3.9206593797684253 -15.0988039486544 -42.3062856939554 9.266727583587857 -5.7398138328457495 10.91729301135945 1.5215907453239315e-32 -3.975693351829397e-16 4.385686728736803e-15 57.943866300604455 -83.80700329431816 2.594447231052423 -64.93575171421723 36.4089710781709 107.28335996335554 -2.3362668101007677e-32 -7.95138670365879e-16 -3.366915307330519e-15
81.5 20.900001525878906 3.299999952316284 26.161571849662725 0.902138873348117 -97.09222128025384 1.194242323462947e-06 -1.3748762169112106e-06 -1.1515806059797198 98.42592994575352 7.381485644191054 -172.14341787717456 -1.506099551698461e-06 -1.888644116342923e-06 32.35287955854129 -6.3611093629270335e-15 6.3611093629270335e-15 3.531125038440127e-31 -101.1678220004423 1.3433387028972759 -179.66997007001035 8.500971916504743e-08 -9.044340062375409e-07 -36.182106567205025 3.531125038440127e-31 -6.3611093629270335e-15 6.3611093629270335e-15 -1.2939791731459702 -12.075090710787087 -45.56543756630995 11.243748968212987 -7.988478610325344 15.845378744378063 -1.987846675914698e-16 1.2306350079036331e-32 -7.094127824670578e-15 39.970234865787994 -79.60770373099636 -13.929783850357198 -58.902982506161 37.49565528904194 101.57302851405701 -1.590277340731758e-15 0.0 0.0
79.5 23.299999237060547 2.299999952316284 26.807478423388318 2.1673618089533906 -96.34732961141727 6.954347341791346e-07 -2.1169681060932706e-06 -2.3031316560775306 97.46214569407147 10.376289000213696 -169.66709127571247 -2.46775735361249e-06 6.113724250518293e-07 29.527875138289527 -3.531125038440127e-31 -6.3611093629270335e-15 -6.3611093629270335e-15 -101.66167913432798 -1.3299797920450018 -177.47247734768663 4.364795303479191e-06 2.108596338662079e-06 -37.73367523253593 0.0 0.0 0.0 1.1593674550441546 -11.83291058280075 -46.44929679985646 10.846386797181934 -7.767502626082667 15.610972593876697 -4.969616689786745e-17 2.9817700138720465e-16 2.6401088664492077e-15 30.751558447036533 -75.22518659022089 -21.48754514415094 -51.10012456099497 37.383114476163385 94.51621020335199 0.0 0.0 2.6587449290359084e-15
77.70000457763672 26.100000381469727 1.2000000476837158 27.615494405081428 3.248589964727974 -94.8753723228984 -1.943273065209224e-06 1.5042216989073869e-06 -3.6037734772012895 96.88476044471817 9.107228355399126 -167.21694275763087 -1.4465632080835234e-06 2.7647048516525274e-06 28.62037298335211 -6.3611093629270335e-15 0.0 0.0 -102.81339252886126 -3.6879937743915896 -174.44996463875566 1.641844042393766e-06 -8.718619785662833e-07 -39.76129079331733 6.3611093629270335e-15 0.0 0.0 2.448508207143345 -20.54394631343996 -37.4020569290776 1.5553795597512559 2.553738683540537 -4.698919558288518 3.975693351829396e-16 -5.689801087330283e-33 -1.6399735076296259e-15 25.860745473135864 -70.32786289122343 -22.331178863484496 -41.65145533929617 36.40422548740352 84.49412046675423 1.1207183959892982e-33 -7.951386703658794e-16 1.6151254241806925e-16
